<svg data-v-423bf9ae="" xmlns="http://www.w3.org/2000/svg" viewBox="0 0 794 90" class="iconLeft"><!----><!----><!----><g data-v-423bf9ae="" id="f72012e9-afb3-46c1-8bad-057b5d359333" fill="#000000" transform="matrix(13.577733526672345,0,0,13.577733526672345,125.6255437795503,-57.62729489288924)"><path d="M0.77 6.24L0.77 6.24Q0.82 6.36 0.85 6.48Q0.88 6.60 0.91 6.73Q0.94 6.85 0.98 6.97Q1.02 7.10 1.08 7.21L1.08 7.21Q1.20 7.42 1.30 7.64Q1.39 7.85 1.49 8.07L1.49 8.07L1.63 8.37Q1.74 8.55 1.90 8.57L1.90 8.57Q2.11 8.59 2.26 8.24L2.26 8.24Q2.35 8.05 2.43 7.84Q2.50 7.63 2.57 7.42L2.57 7.42Q2.58 7.40 2.61 7.34Q2.64 7.27 2.71 7.16L2.71 7.16Q2.75 7.08 2.79 7.02Q2.82 6.95 2.86 6.90L2.86 6.90Q3.01 6.58 3.17 6.25Q3.33 5.91 3.45 5.56L3.45 5.56Q3.47 5.47 3.53 5.45L3.53 5.45Q3.58 5.43 3.75 5.50L3.75 5.50Q3.88 5.57 3.89 5.61L3.89 5.61Q3.90 5.67 3.86 5.77Q3.81 5.87 3.79 5.93L3.79 5.93L3.72 6.05Q3.66 6.16 3.61 6.27Q3.56 6.37 3.51 6.47L3.51 6.47Q3.41 6.66 3.34 6.85Q3.27 7.04 3.19 7.23L3.19 7.23Q3.00 7.64 2.81 8.04Q2.63 8.45 2.41 8.84L2.41 8.84Q2.32 9.00 2.25 9.21L2.25 9.21Q2.18 9.45 2.05 9.54L2.05 9.54Q2.00 9.58 1.93 9.59L1.93 9.59Q1.89 9.60 1.81 9.57L1.81 9.57Q1.76 9.55 1.72 9.50Q1.68 9.45 1.65 9.39Q1.62 9.33 1.59 9.27Q1.57 9.21 1.54 9.16L1.54 9.16Q1.39 8.93 1.27 8.65Q1.15 8.37 1.00 8.04L1.00 8.04Q0.90 7.82 0.82 7.59Q0.73 7.37 0.62 7.15L0.62 7.15Q0.57 7.08 0.47 6.77L0.47 6.77Q0.46 6.73 0.44 6.65Q0.42 6.58 0.38 6.49L0.38 6.49Q0.32 6.34 0.25 6.21Q0.18 6.07 0.11 5.93L0.11 5.93Q0 5.67 0 5.61L0 5.61Q0.02 5.48 0.14 5.43L0.14 5.43Q0.33 5.35 0.44 5.59L0.44 5.59Q0.51 5.76 0.60 5.92Q0.69 6.08 0.77 6.24ZM5.76 9.70L5.76 9.70Q5.54 9.67 5.54 9.44L5.54 9.44Q5.54 9.07 5.54 8.72Q5.54 8.36 5.54 7.99L5.54 7.99Q5.54 7.79 5.56 7.58L5.56 7.58Q5.57 7.43 5.57 7.30Q5.57 7.17 5.56 7.06L5.56 7.06Q5.56 6.99 5.55 6.90Q5.54 6.80 5.54 6.67L5.54 6.67Q5.54 6.60 5.54 6.51Q5.54 6.41 5.55 6.28L5.55 6.28Q5.56 6.19 5.56 6.11Q5.56 6.04 5.56 5.99L5.56 5.99L5.56 5.84L5.56 5.83L5.56 5.78Q5.54 5.61 5.57 5.54L5.57 5.54Q5.59 5.49 5.66 5.44L5.66 5.44Q5.93 5.30 5.99 5.61L5.99 5.61Q6.04 5.84 6.05 6.07Q6.06 6.29 6.04 6.51L6.04 6.51L6.04 6.51Q6.02 6.73 6.03 6.94Q6.04 7.15 6.02 7.36L6.02 7.36Q6.00 7.55 5.99 7.68Q5.97 7.82 5.97 7.92L5.97 7.92Q5.95 8.05 5.95 8.20Q5.95 8.35 5.96 8.51L5.96 8.51Q5.97 8.54 5.97 8.59Q5.97 8.63 5.97 8.70L5.97 8.70Q5.97 8.80 5.97 8.91Q5.97 9.02 5.97 9.13L5.97 9.13Q5.97 9.20 5.98 9.27Q5.98 9.33 5.97 9.40L5.97 9.40Q5.97 9.54 5.97 9.55L5.97 9.55Q5.94 9.68 5.76 9.70ZM10.78 5.86L10.78 5.87L10.80 5.89Q10.88 5.97 10.94 6.08Q11.01 6.19 11.06 6.33L11.06 6.33Q11.10 6.43 11.15 6.51Q11.20 6.60 11.24 6.69L11.24 6.69Q11.29 6.84 11.32 6.97Q11.35 7.09 11.35 7.20L11.35 7.20Q11.36 7.31 11.36 7.43Q11.35 7.56 11.33 7.72L11.33 7.72Q11.32 7.85 11.32 7.99Q11.32 8.12 11.29 8.26L11.29 8.26Q11.26 8.44 11.19 8.61Q11.12 8.78 11.02 8.94L11.02 8.94Q10.85 9.21 10.54 9.44L10.54 9.44L10.49 9.47Q10.41 9.52 10.36 9.53L10.36 9.53Q10.28 9.56 10.21 9.59Q10.14 9.61 10.08 9.63L10.08 9.63Q9.73 9.71 9.35 9.70Q8.98 9.69 8.62 9.69L8.62 9.69Q8.49 9.69 8.31 9.70Q8.12 9.70 8.01 9.63L8.01 9.63Q7.92 9.58 7.89 9.45L7.89 9.45Q7.88 9.42 7.88 9.33L7.88 9.33Q7.88 9.00 7.89 8.68Q7.90 8.35 7.91 8.03L7.91 8.03Q7.92 7.86 7.90 7.69Q7.88 7.51 7.88 7.34L7.88 7.34L7.88 6.63L7.88 6.06Q7.88 5.65 7.98 5.52L7.98 5.52Q8.09 5.41 8.32 5.41L8.32 5.41Q8.44 5.42 8.53 5.42Q8.63 5.41 8.71 5.41L8.71 5.41Q8.97 5.41 9.24 5.42Q9.51 5.43 9.80 5.45L9.80 5.45Q10.36 5.48 10.78 5.86L10.78 5.86ZM9.89 5.89L9.88 5.89L9.88 5.89Q9.78 5.87 9.64 5.87Q9.50 5.87 9.32 5.89L9.32 5.89Q8.98 5.91 8.80 5.88L8.80 5.88Q8.50 5.83 8.43 5.88L8.43 5.88Q8.33 5.95 8.33 6.17L8.33 6.17Q8.33 6.39 8.33 6.60Q8.34 6.82 8.33 7.02L8.33 7.02Q8.29 7.53 8.30 8.04Q8.31 8.54 8.31 9.04L8.31 9.04Q8.31 9.15 8.39 9.22L8.39 9.22Q8.48 9.30 8.72 9.26L8.72 9.26Q8.72 9.26 8.73 9.26Q8.74 9.26 8.75 9.26L8.75 9.26Q8.89 9.25 9.01 9.25Q9.13 9.26 9.24 9.26L9.24 9.26Q9.65 9.29 10.02 9.22L10.02 9.22Q10.40 9.14 10.62 8.72L10.62 8.72Q10.71 8.54 10.78 8.37Q10.86 8.20 10.90 8.02Q10.94 7.85 10.95 7.66Q10.96 7.48 10.94 7.26L10.94 7.26Q10.90 6.84 10.66 6.42L10.66 6.42Q10.55 6.22 10.35 6.09Q10.16 5.96 9.89 5.89L9.89 5.89ZM13.15 9.29L13.15 9.29Q13.15 8.87 13.15 8.46Q13.15 8.04 13.15 7.62L13.15 7.62L13.15 7.38Q13.15 7.20 13.14 7.01Q13.13 6.82 13.15 6.64L13.15 6.64Q13.15 6.43 13.15 6.23Q13.15 6.03 13.16 5.82L13.16 5.82Q13.16 5.58 13.28 5.48L13.28 5.48Q13.36 5.41 13.59 5.41L13.59 5.41Q13.71 5.41 13.79 5.40Q13.88 5.40 13.94 5.40L13.94 5.40Q14.21 5.39 14.47 5.40Q14.74 5.41 15.00 5.41L15.00 5.41Q15.15 5.40 15.29 5.40Q15.44 5.39 15.57 5.41L15.57 5.41L15.92 5.43Q15.98 5.43 16.03 5.43Q16.07 5.43 16.11 5.45L16.11 5.45Q16.25 5.52 16.24 5.66L16.24 5.66Q16.24 5.72 16.19 5.76Q16.15 5.80 16.10 5.82Q16.05 5.84 16.00 5.84Q15.94 5.85 15.90 5.85L15.90 5.85Q15.48 5.85 15.07 5.83L15.07 5.83Q15.03 5.82 14.97 5.82Q14.91 5.82 14.83 5.82L14.83 5.82L14.44 5.82Q14.28 5.82 14.16 5.83Q14.03 5.83 13.95 5.83L13.95 5.83Q13.84 5.84 13.76 5.86Q13.69 5.89 13.65 5.94L13.65 5.94Q13.60 6.02 13.61 6.15L13.61 6.15Q13.61 6.20 13.61 6.24Q13.61 6.28 13.60 6.32L13.60 6.32Q13.59 6.40 13.58 6.49Q13.58 6.58 13.58 6.69L13.58 6.69Q13.58 6.88 13.73 7.01L13.73 7.01Q13.86 7.12 14.18 7.10L14.18 7.10Q14.32 7.10 14.46 7.08Q14.60 7.06 14.75 7.07L14.75 7.07Q14.81 7.07 14.91 7.07Q15.00 7.08 15.14 7.07L15.14 7.07Q15.42 7.06 15.51 7.16L15.51 7.16Q15.54 7.21 15.54 7.32L15.54 7.32Q15.52 7.44 15.35 7.47L15.35 7.47Q15.19 7.50 15.09 7.50L15.09 7.50Q14.97 7.51 14.85 7.50Q14.73 7.50 14.61 7.51L14.61 7.51Q14.46 7.52 14.30 7.51Q14.14 7.51 13.97 7.49L13.97 7.49Q13.95 7.49 13.92 7.49Q13.90 7.49 13.88 7.49L13.88 7.49L13.87 7.49Q13.79 7.47 13.72 7.52L13.72 7.52Q13.60 7.59 13.58 7.78L13.58 7.78Q13.57 7.96 13.58 8.09L13.58 8.09Q13.59 8.16 13.59 8.22Q13.60 8.29 13.59 8.33L13.59 8.33Q13.58 8.44 13.57 8.53Q13.56 8.63 13.54 8.74L13.54 8.74Q13.52 9.00 13.61 9.13L13.61 9.13Q13.73 9.28 14.01 9.28L14.01 9.28Q14.24 9.28 14.47 9.27Q14.70 9.26 14.94 9.25L14.94 9.25Q15.15 9.24 15.37 9.26Q15.59 9.28 15.81 9.28L15.81 9.28Q15.89 9.28 16.03 9.28Q16.17 9.28 16.24 9.32L16.24 9.32Q16.31 9.36 16.32 9.44L16.32 9.44Q16.39 9.69 16.11 9.70L16.11 9.70Q15.65 9.72 15.22 9.71Q14.79 9.71 14.35 9.71L14.35 9.71Q14.32 9.71 14.30 9.72Q14.27 9.72 14.25 9.72L14.25 9.72Q14.10 9.72 13.98 9.72Q13.87 9.72 13.79 9.71L13.79 9.71Q13.75 9.71 13.68 9.71Q13.62 9.71 13.54 9.70L13.54 9.70Q13.47 9.69 13.42 9.69Q13.38 9.68 13.36 9.67L13.36 9.67Q13.15 9.61 13.15 9.29ZM19.26 9.69L19.26 9.69Q19.13 9.65 18.99 9.58Q18.85 9.52 18.71 9.43Q18.58 9.34 18.46 9.24Q18.35 9.13 18.27 9.01L18.27 9.01Q18.16 8.84 18.11 8.66Q18.06 8.48 17.97 8.29L17.97 8.29Q17.90 8.13 17.90 7.96L17.90 7.96Q17.89 7.88 17.88 7.79Q17.87 7.70 17.87 7.62L17.87 7.62Q17.86 7.54 17.86 7.48Q17.86 7.42 17.86 7.38L17.86 7.38Q17.86 7.25 17.87 7.11Q17.89 6.97 17.92 6.82L17.92 6.82Q17.93 6.77 17.96 6.69L17.96 6.69Q18.03 6.49 18.14 6.31Q18.25 6.13 18.38 5.97L18.38 5.97Q18.65 5.67 19.13 5.43L19.13 5.43Q19.35 5.34 19.58 5.35L19.58 5.35Q19.74 5.36 19.89 5.39L19.89 5.39Q20.01 5.41 20.10 5.42Q20.19 5.43 20.26 5.44L20.26 5.44Q20.79 5.50 21.19 5.91L21.19 5.91Q21.28 6.00 21.36 6.10Q21.44 6.21 21.51 6.33L21.51 6.33L21.55 6.38Q21.55 6.41 21.56 6.42Q21.57 6.43 21.57 6.45L21.57 6.45Q21.69 6.72 21.79 7.13L21.79 7.13Q21.88 7.51 21.81 7.83L21.81 7.83Q21.77 8.02 21.71 8.19Q21.65 8.36 21.60 8.53L21.60 8.53Q21.33 9.45 20.40 9.69L20.40 9.69L20.34 9.70Q20.29 9.71 20.21 9.73Q20.13 9.74 20.02 9.75L20.02 9.75Q19.84 9.78 19.65 9.76Q19.46 9.75 19.26 9.69ZM19.96 5.78L19.95 5.78Q19.58 5.78 19.29 5.87Q18.99 5.95 18.75 6.19L18.75 6.19Q18.42 6.52 18.33 6.92Q18.25 7.32 18.34 7.81L18.34 7.81L18.40 8.15Q18.42 8.24 18.43 8.30Q18.44 8.36 18.45 8.37L18.45 8.37Q18.49 8.52 18.61 8.66Q18.74 8.80 18.84 8.90L18.84 8.90Q18.89 8.96 18.95 9.02Q19.00 9.08 19.07 9.13L19.07 9.13Q19.17 9.21 19.41 9.29L19.41 9.29L19.41 9.29Q19.54 9.32 19.70 9.31Q19.87 9.30 20.06 9.26L20.06 9.26Q20.16 9.23 20.26 9.22Q20.36 9.21 20.46 9.18L20.46 9.18Q20.71 9.12 20.88 8.91L20.88 8.91L20.89 8.91L20.89 8.90Q21 8.77 21.08 8.57L21.08 8.57Q21.14 8.37 21.18 8.32L21.18 8.32Q21.52 7.65 21.28 6.87L21.28 6.87L21.27 6.86Q21.25 6.79 21.22 6.72Q21.19 6.65 21.14 6.58L21.14 6.58Q20.88 6.18 20.51 6.00L20.51 6.00Q20.49 6.00 20.45 5.97Q20.40 5.94 20.31 5.89L20.31 5.89Q20.19 5.81 19.96 5.78L19.96 5.78ZM29.24 9.08L29.24 9.08Q29.13 9.23 29.02 9.34Q28.92 9.45 28.80 9.53Q28.68 9.60 28.54 9.66Q28.40 9.71 28.23 9.73L28.23 9.73Q28.14 9.74 28.04 9.74Q27.95 9.75 27.84 9.73L27.84 9.73Q27.69 9.72 27.54 9.72Q27.40 9.72 27.25 9.69L27.25 9.69Q26.92 9.61 26.70 9.46Q26.48 9.31 26.37 9.07L26.37 9.07Q26.22 8.74 26.54 8.73L26.54 8.73Q26.59 8.73 26.66 8.81Q26.74 8.89 26.78 8.93L26.78 8.93Q26.92 9.07 26.94 9.08L26.94 9.08L26.95 9.08L26.95 9.09Q27.28 9.32 27.84 9.32L27.84 9.32L27.84 9.32L27.85 9.32Q28.08 9.32 28.44 9.23L28.44 9.23Q28.80 9.14 28.92 8.87L28.92 8.87Q28.98 8.70 28.92 8.51L28.92 8.51L28.92 8.50Q28.75 8.14 28.25 8.02L28.25 8.02L27.41 7.80Q27.23 7.76 26.98 7.63L26.98 7.63Q26.85 7.56 26.76 7.51Q26.66 7.45 26.60 7.40L26.60 7.40Q26.32 7.19 26.27 6.99L26.27 6.99Q26.26 6.95 26.26 6.89Q26.26 6.83 26.26 6.74L26.26 6.74Q26.26 6.64 26.28 6.55Q26.29 6.46 26.30 6.36L26.30 6.36Q26.35 6.04 26.57 5.80L26.57 5.80Q26.67 5.69 26.82 5.62Q26.97 5.55 27.10 5.49L27.10 5.49Q27.30 5.40 27.50 5.40Q27.71 5.39 27.92 5.40L27.92 5.40Q28.59 5.42 28.96 5.87L28.96 5.87Q29.13 6.08 29.09 6.22L29.09 6.22L29.05 6.26Q28.94 6.32 28.79 6.19L28.79 6.19Q28.75 6.16 28.71 6.13Q28.68 6.09 28.64 6.06L28.64 6.06Q28.61 6.02 28.55 5.98Q28.50 5.95 28.43 5.91L28.43 5.91L28.42 5.90L28.40 5.90Q28.14 5.82 27.88 5.81Q27.62 5.80 27.34 5.86L27.34 5.86Q27.00 5.93 26.82 6.14Q26.65 6.34 26.65 6.67L26.65 6.67L26.65 6.69L26.65 6.70Q26.68 7.12 27.31 7.30L27.31 7.30L27.51 7.36L28.01 7.53Q28.13 7.57 28.25 7.62Q28.36 7.67 28.49 7.72L28.49 7.72Q28.68 7.81 28.85 7.90Q29.01 7.98 29.15 8.07L29.15 8.07Q29.24 8.13 29.30 8.22Q29.35 8.31 29.36 8.41Q29.38 8.51 29.38 8.62Q29.37 8.73 29.35 8.82L29.35 8.82Q29.34 8.89 29.31 8.96Q29.28 9.03 29.24 9.08ZM31.49 7.99L31.49 7.99Q31.49 8.16 31.49 8.33Q31.48 8.50 31.49 8.67L31.49 8.67Q31.49 9.21 31.49 9.49L31.49 9.49Q31.49 9.61 31.38 9.67L31.38 9.67Q31.27 9.73 31.19 9.68L31.19 9.68Q31.11 9.65 31.10 9.52L31.10 9.52Q31.08 9.30 31.08 9.08Q31.07 8.87 31.07 8.64L31.07 8.64Q31.08 8.37 31.08 8.09Q31.08 7.82 31.08 7.53L31.08 7.53Q31.08 7.37 31.09 7.20Q31.09 7.03 31.08 6.87L31.08 6.87Q31.08 6.68 31.08 6.47Q31.08 6.26 31.09 6.03L31.09 6.03Q31.10 5.99 31.10 5.93Q31.10 5.87 31.10 5.78L31.10 5.78Q31.10 5.63 31.10 5.61L31.10 5.61Q31.11 5.55 31.22 5.48L31.22 5.48Q31.31 5.42 31.58 5.41L31.58 5.41Q31.72 5.40 31.82 5.40Q31.92 5.39 31.99 5.39L31.99 5.39Q32.17 5.39 32.36 5.40Q32.56 5.41 32.76 5.42L32.76 5.42Q32.87 5.43 33.00 5.44Q33.13 5.45 33.29 5.48L33.29 5.48Q33.61 5.52 33.78 5.66L33.78 5.66L33.79 5.66Q34.02 5.86 34.14 6.09Q34.26 6.32 34.25 6.61L34.25 6.61Q34.24 6.81 34.15 6.96Q34.06 7.10 33.91 7.21L33.91 7.21Q33.61 7.42 33.26 7.49L33.26 7.49Q33.29 7.48 33.17 7.51L33.17 7.51Q32.96 7.54 32.75 7.53Q32.55 7.52 32.34 7.55L32.34 7.55Q32.27 7.55 32.18 7.56Q32.09 7.56 31.96 7.55L31.96 7.55Q31.72 7.54 31.61 7.62L31.61 7.62Q31.47 7.72 31.49 7.99ZM32.56 7.12L32.62 7.12Q32.89 7.12 33.14 7.10Q33.39 7.07 33.63 6.89L33.63 6.89Q33.89 6.70 33.84 6.44L33.84 6.44Q33.78 6.18 33.55 6.02L33.55 6.02Q33.50 5.97 33.42 5.94Q33.35 5.91 33.28 5.89L33.28 5.89Q32.93 5.81 32.63 5.85L32.63 5.85Q32.48 5.87 32.32 5.88Q32.16 5.89 32.00 5.89L32.00 5.89Q31.92 5.89 31.86 5.88Q31.79 5.88 31.76 5.87L31.76 5.87Q31.72 5.86 31.68 5.87L31.68 5.87Q31.51 5.91 31.50 6.17L31.50 6.17Q31.49 6.23 31.49 6.32Q31.49 6.41 31.49 6.52L31.49 6.52Q31.49 6.56 31.49 6.61Q31.49 6.66 31.49 6.73L31.49 6.73Q31.51 6.97 31.64 7.08L31.64 7.08Q31.77 7.19 32.09 7.18L32.09 7.18Q32.21 7.17 32.32 7.16Q32.44 7.14 32.56 7.12L32.56 7.12ZM39.70 9.47L39.70 9.47Q39.70 9.65 39.55 9.69L39.55 9.69Q39.43 9.75 39.33 9.61L39.33 9.61Q39.29 9.54 39.26 9.49Q39.22 9.43 39.20 9.39L39.20 9.39Q39.11 9.18 39.03 9.03Q38.96 8.87 38.88 8.78L38.88 8.78Q38.72 8.55 38.52 8.49L38.52 8.49Q38.35 8.44 37.97 8.48L37.97 8.48Q37.75 8.50 37.56 8.51Q37.37 8.52 37.19 8.50L37.19 8.50Q36.79 8.48 36.60 8.76L36.60 8.76L36.59 8.78L36.58 8.79Q36.51 8.93 36.47 9.06Q36.42 9.19 36.36 9.32L36.36 9.32L36.22 9.54Q36.12 9.69 36.02 9.70L36.02 9.70Q35.97 9.72 35.88 9.65L35.88 9.65Q35.84 9.60 35.83 9.55Q35.82 9.49 35.83 9.43Q35.84 9.37 35.86 9.30Q35.89 9.24 35.91 9.19L35.91 9.19L36.07 8.85Q36.31 8.35 36.52 7.85Q36.73 7.34 36.96 6.83L36.96 6.83Q37.00 6.74 37.03 6.66Q37.06 6.58 37.10 6.51L37.10 6.51Q37.17 6.32 37.25 6.14Q37.32 5.95 37.42 5.76L37.42 5.76L37.52 5.61Q37.60 5.48 37.67 5.48L37.67 5.48Q37.73 5.46 37.84 5.59L37.84 5.59Q37.96 5.73 38.07 5.91Q38.17 6.10 38.25 6.26L38.25 6.26Q38.49 6.77 38.69 7.28Q38.90 7.79 39.14 8.28L39.14 8.28Q39.22 8.43 39.29 8.58Q39.36 8.74 39.44 8.88L39.44 8.88Q39.48 8.98 39.53 9.08Q39.57 9.17 39.61 9.27L39.61 9.27Q39.65 9.34 39.67 9.39Q39.69 9.44 39.70 9.47ZM38.34 7.56L38.34 7.56Q38.27 7.40 38.21 7.22Q38.14 7.05 38.06 6.88L38.06 6.88Q37.89 6.57 37.69 6.58L37.69 6.58Q37.62 6.58 37.56 6.62Q37.50 6.67 37.46 6.72Q37.42 6.78 37.39 6.85Q37.35 6.92 37.33 6.98L37.33 6.98Q37.26 7.18 37.19 7.40Q37.12 7.62 37.06 7.83L37.06 7.83Q37.01 7.98 37.07 8.05L37.07 8.05Q37.11 8.12 37.28 8.13L37.28 8.13Q37.43 8.14 37.55 8.15Q37.67 8.15 37.74 8.14L37.74 8.14Q37.89 8.14 38.14 8.10L38.14 8.10Q38.39 8.06 38.44 7.88L38.44 7.88Q38.46 7.77 38.41 7.69L38.41 7.69Q38.40 7.66 38.37 7.63Q38.35 7.59 38.34 7.56ZM44.11 5.67L44.11 5.67Q44.25 5.82 44.33 5.99Q44.42 6.16 44.51 6.34L44.51 6.34Q44.60 6.54 44.57 6.74Q44.53 6.94 44.34 7.13L44.34 7.13Q44.20 7.28 43.87 7.37L43.87 7.37Q43.74 7.40 43.60 7.44Q43.46 7.48 43.41 7.60L43.41 7.60Q43.37 7.72 43.43 7.84L43.43 7.84Q43.50 7.97 43.54 8.05Q43.58 8.13 43.61 8.18L43.61 8.18Q43.64 8.24 43.70 8.33Q43.75 8.42 43.83 8.52L43.83 8.52Q43.98 8.74 44.16 8.93Q44.33 9.13 44.51 9.30L44.51 9.30L44.54 9.34Q44.69 9.49 44.55 9.63L44.55 9.63Q44.39 9.79 44.25 9.64L44.25 9.64Q44.13 9.52 44.04 9.43Q43.96 9.34 43.88 9.26L43.88 9.26Q43.72 9.05 43.57 8.83L43.57 8.83Q43.47 8.67 43.36 8.53Q43.26 8.39 43.16 8.23L43.16 8.23Q42.89 7.74 42.49 7.58L42.49 7.58Q42.05 7.42 41.86 7.70L41.86 7.70Q41.79 7.80 41.79 7.92L41.79 7.92L41.79 9.40L41.79 9.49Q41.79 9.69 41.58 9.70L41.58 9.70Q41.37 9.69 41.37 9.44L41.37 9.44Q41.37 9.28 41.38 9.12Q41.39 8.95 41.40 8.76L41.40 8.76Q41.41 8.63 41.40 8.49Q41.38 8.35 41.38 8.22L41.38 8.22Q41.38 8.09 41.39 7.96Q41.40 7.83 41.40 7.70L41.40 7.70Q41.41 7.40 41.38 7.07L41.38 7.07Q41.38 6.84 41.39 6.61Q41.40 6.38 41.39 6.14L41.39 6.14Q41.38 6.02 41.38 5.86Q41.38 5.71 41.43 5.58L41.43 5.58Q41.55 5.42 42.01 5.42L42.01 5.42L42.22 5.42Q42.46 5.42 42.71 5.44Q42.96 5.46 43.21 5.45L43.21 5.45Q43.78 5.42 44.11 5.67ZM42.18 7.15L42.18 7.15Q42.44 7.16 42.64 7.16Q42.84 7.16 42.98 7.14L42.98 7.14Q43.11 7.13 43.27 7.11Q43.43 7.09 43.62 7.05L43.62 7.05Q44.01 6.97 44.13 6.69L44.13 6.69Q44.17 6.59 44.16 6.47L44.16 6.47Q44.15 6.34 44.08 6.24Q44.02 6.14 43.92 6.07Q43.82 6.00 43.70 5.94Q43.59 5.89 43.48 5.87L43.48 5.87Q43.19 5.82 42.91 5.83Q42.62 5.84 42.33 5.82L42.33 5.82Q42.28 5.82 42.23 5.82Q42.18 5.82 42.12 5.82L42.12 5.82Q41.98 5.81 41.90 5.89L41.90 5.89Q41.84 5.96 41.86 6.08L41.86 6.08Q41.86 6.12 41.86 6.23L41.86 6.23Q41.86 6.33 41.84 6.43Q41.82 6.52 41.82 6.62L41.82 6.62Q41.77 6.88 41.88 7.01L41.88 7.01Q41.97 7.14 42.18 7.15ZM46.38 5.50L46.38 5.50Q46.73 5.21 46.77 5.67L46.77 5.67Q46.79 5.76 46.79 5.87Q46.79 5.97 46.78 6.08L46.78 6.08Q46.77 6.21 46.77 6.32Q46.76 6.44 46.76 6.56L46.76 6.56Q46.78 6.90 46.94 6.96L46.94 6.96Q47.10 7.02 47.28 6.82L47.28 6.82Q47.40 6.69 47.54 6.54Q47.67 6.39 47.84 6.25L47.84 6.25Q47.97 6.14 48.10 6.02Q48.23 5.89 48.36 5.77L48.36 5.77Q48.39 5.74 48.45 5.70Q48.51 5.65 48.60 5.58L48.60 5.58Q48.76 5.46 48.84 5.43L48.84 5.43Q48.99 5.41 49.07 5.51L49.07 5.51Q49.13 5.63 49.02 5.74L49.02 5.74Q48.92 5.87 48.85 5.96Q48.77 6.04 48.73 6.09L48.73 6.09Q48.63 6.19 48.38 6.38L48.38 6.38Q48.27 6.46 48.15 6.56Q48.04 6.65 47.94 6.75L47.94 6.75Q47.77 6.94 47.75 7.10L47.75 7.10Q47.74 7.18 47.77 7.28Q47.79 7.38 47.86 7.50L47.86 7.50Q47.92 7.62 47.99 7.74Q48.06 7.86 48.12 7.98L48.12 7.98Q48.15 8.05 48.18 8.11Q48.21 8.16 48.22 8.20L48.22 8.20L48.22 8.20Q48.38 8.50 48.61 8.78Q48.84 9.06 49.13 9.34L49.13 9.34Q49.28 9.48 49.13 9.63L49.13 9.63Q48.98 9.79 48.83 9.64L48.83 9.64Q48.30 9.14 48.05 8.74L48.05 8.74Q47.89 8.49 47.76 8.22Q47.63 7.95 47.50 7.68L47.50 7.68Q47.39 7.46 47.25 7.45L47.25 7.45Q47.13 7.45 46.94 7.67L46.94 7.67Q46.87 7.77 46.83 7.87Q46.80 7.97 46.79 8.08L46.79 8.08Q46.77 8.24 46.81 8.40Q46.84 8.57 46.82 8.72L46.82 8.72Q46.82 8.76 46.81 8.78L46.81 8.78Q46.79 8.97 46.78 9.14Q46.77 9.32 46.78 9.48L46.78 9.48Q46.78 9.68 46.55 9.70L46.55 9.70Q46.35 9.69 46.35 9.49L46.35 9.49Q46.35 9.16 46.34 8.84Q46.33 8.51 46.32 8.18L46.32 8.18Q46.31 7.94 46.34 7.69Q46.38 7.44 46.38 7.20L46.38 7.20Q46.38 7.11 46.38 7.01Q46.38 6.92 46.38 6.82L46.38 6.82Q46.39 6.47 46.38 6.33L46.38 6.33L46.31 5.91Q46.27 5.65 46.38 5.50Z"></path></g><defs data-v-423bf9ae=""><linearGradient data-v-423bf9ae="" gradientTransform="rotate(25)" id="09e0a7a9-fcdb-4593-9bef-0ad689ce321a" x1="0%" y1="0%" x2="100%" y2="0%"><stop data-v-423bf9ae="" offset="0%" style="stop-color: rgb(180, 55, 61); stop-opacity: 1;"></stop><stop data-v-423bf9ae="" offset="100%" style="stop-color: rgb(178, 58, 203); stop-opacity: 1;"></stop></linearGradient></defs><g data-v-423bf9ae="" id="34a34623-83e6-419e-b04d-b0a59645f606" transform="matrix(1.1736170168736895,0,0,1.1736170168736895,-5.689536121849557,-13.053368400283048)" stroke="none" fill="url(#09e0a7a9-fcdb-4593-9bef-0ad689ce321a)"><path d="M11.536 81.824h7.5v.203h-7.5z"></path><path d="M91.807 11.827H77.82a3.244 3.244 0 00-3.243 3.227v10.03H25.523V15.07a3.242 3.242 0 00-3.243-3.243H8.293A3.242 3.242 0 005.05 15.07v70.2a3.242 3.242 0 003.243 3.243H22.28a3.25 3.25 0 002.295-.949c.949-.949.949-.949.949-8.757v-3.219h49.054v9.681a3.242 3.242 0 003.243 3.243h13.986a3.242 3.242 0 003.243-3.243v-70.2a3.242 3.242 0 00-3.243-3.242zm-72.771 70.2h-7.5v-7.395h7.5v7.395zm0-14.587h-7.5v-7.192h7.5v7.192zm0-14.384h-7.5v-7.192h7.5v7.192zm0-14.383h-7.5v-7.192h7.5v7.192zm0-14.384h-7.5v-5.976h7.5v5.976zm55.541 44.813H25.523V31.57h49.054v37.532zm13.986 12.925h-7.5v-7.395h7.5v7.395zm0-14.587h-7.5v-7.192h7.5v7.192zm0-14.384h-7.5v-7.192h7.5v7.192zm0-14.383h-7.5v-7.192h7.5v7.192zm0-14.384h-7.5v-5.976h7.5v5.976z"></path><path d="M81.064 81.824h7.5v.203h-7.5z"></path><g><path d="M59.391 50.17c0 .592-.308 1.151-.811 1.468l-15.195 9.641a1.696 1.696 0 01-.932.276 1.74 1.74 0 01-.843-.219 1.753 1.753 0 01-.9-1.524V40.529c0-.641.349-1.224.9-1.532a1.761 1.761 0 011.776.057l15.195 9.649c.501.316.81.867.81 1.467z"></path></g></g><!----></svg>